<?xml version="1.0" encoding="UTF-8" standalone="no"?>
<!DOCTYPE svg PUBLIC "-//W3C//DTD SVG 1.1//EN" "http://www.w3.org/Graphics/SVG/1.1/DTD/svg11.dtd">
<svg width="100%" height="100%" viewBox="0 0 24 24" version="1.1" xmlns="http://www.w3.org/2000/svg" xmlns:xlink="http://www.w3.org/1999/xlink" xml:space="preserve" xmlns:serif="http://www.serif.com/" style="fill-rule:evenodd;clip-rule:evenodd;stroke-linecap:round;">
    <g transform="matrix(0.484766,0,0,0.484766,13,13.1828)">
        <g>
            <path d="M12,20C16.389,20 20,16.389 20,12C20,7.611 16.389,4 12,4C7.611,4 4,7.611 4,12C4,16.389 7.611,20 12,20M12,2C17.486,2 22,6.514 22,12C22,17.486 17.486,22 12,22C6.47,22 2,17.5 2,12C2,6.514 6.514,2 12,2M12.5,7L12.5,12.25L17,14.92L16.25,16.15L11,13L11,7L12.5,7Z" style="fill-rule:nonzero;"/>
        </g>
    </g>
    <g transform="matrix(0.195454,0,0,0.195454,-0.999993,-1.73715)">
        <g id="weather-sunny.svg">
            <g id="measure_dust.svg">
                <g>
                    <g>
                        <path d="M31,81C2,82 2,47 21,42C30,10 69,10 78,42C98,47 98,82 69,81L31,81Z" style="fill:none;fill-rule:nonzero;stroke:black;stroke-width:4px;"/>
                        <circle cx="49.5" cy="45.4" r="1.7"/>
                        <circle cx="49.5" cy="34.3" r="1.7"/>
                        <circle cx="49.5" cy="56.5" r="1.7"/>
                        <circle cx="67" cy="45.4" r="1.7"/>
                        <circle cx="32" cy="45.4" r="1.7"/>
                        <circle cx="40.7" cy="39.7" r="1.7"/>
                        <circle cx="58.3" cy="39.7" r="1.7"/>
                        <circle cx="58.3" cy="51" r="1.7"/>
                        <circle cx="40.7" cy="51" r="1.7"/>
                    </g>
                </g>
            </g>
        </g>
    </g>
</svg>
