<?xml version="1.0" encoding="UTF-8" standalone="no"?>
<!DOCTYPE svg PUBLIC "-//W3C//DTD SVG 1.1//EN" "http://www.w3.org/Graphics/SVG/1.1/DTD/svg11.dtd">
<svg width="100%" height="100%" viewBox="0 0 24 24" version="1.1" xmlns="http://www.w3.org/2000/svg" xmlns:xlink="http://www.w3.org/1999/xlink" xml:space="preserve" xmlns:serif="http://www.serif.com/" style="fill-rule:evenodd;clip-rule:evenodd;stroke-linecap:round;">
    <g transform="matrix(0.522563,0,0,0.522563,13.5,12)">
        <g id="map-marker-outline.svg">
            <g>
                <path d="M12,6.5C13.371,6.5 14.5,7.629 14.5,9C14.5,10.371 13.371,11.5 12,11.5C10.629,11.5 9.5,10.371 9.5,9C9.5,7.629 10.629,6.5 12,6.5M12,2C15.84,2 19,5.16 19,9C19,14.25 12,22 12,22C12,22 5,14.25 5,9C5,5.16 8.16,2 12,2M12,4C9.257,4 7,6.257 7,9C7,10 7,12 12,18.71C17,12 17,10 17,9C17,6.257 14.743,4 12,4Z" style="fill-rule:nonzero;"/>
            </g>
        </g>
    </g>
    <g id="weather-sunny.svg" transform="matrix(0.916667,0,0,0.916667,8.5,9.5)">
        <g id="measure_dust.svg" transform="matrix(0.213223,0,0,0.213223,1.36364,-1.59756)">
            <g transform="matrix(1,0,0,1,-55,-50)">
                <clipPath id="_clip1">
                    <rect x="0" y="0" width="110" height="100"/>
                </clipPath>
                <g clip-path="url(#_clip1)">
                    <path d="M31,81C2,82 2,47 21,42C30,10 69,10 78,42C98,47 98,82 69,81L31,81Z" style="fill:none;fill-rule:nonzero;stroke:black;stroke-width:4px;"/>
                    <circle cx="49.5" cy="45.4" r="1.7"/>
                    <circle cx="49.5" cy="34.3" r="1.7"/>
                    <circle cx="49.5" cy="56.5" r="1.7"/>
                    <circle cx="67" cy="45.4" r="1.7"/>
                    <circle cx="32" cy="45.4" r="1.7"/>
                    <circle cx="40.7" cy="39.7" r="1.7"/>
                    <circle cx="58.3" cy="39.7" r="1.7"/>
                    <circle cx="58.3" cy="51" r="1.7"/>
                    <circle cx="40.7" cy="51" r="1.7"/>
                </g>
            </g>
        </g>
        <g transform="matrix(1.09091,0,0,1.09091,5.45454,-28.8228)">
            <text x="1px" y="22.079px" style="font-family:'Arial-BoldMT', 'Arial', sans-serif;font-weight:700;font-size:5px;">NO</text>
            <text x="8.5px" y="22.079px" style="font-family:'Arial-BoldMT', 'Arial', sans-serif;font-weight:700;font-size:3px;">2</text>
        </g>
        <g transform="matrix(1.09091,0,0,1.09091,9.27272,-24.0863)">
            <text x="1px" y="22.079px" style="font-family:'Arial-BoldMT', 'Arial', sans-serif;font-weight:700;font-size:5px;">O</text>
            <text x="4.889px" y="22.079px" style="font-family:'Arial-BoldMT', 'Arial', sans-serif;font-weight:700;font-size:3px;">3</text>
        </g>
        <g transform="matrix(1.09091,0,0,1.09091,-9.81818,-14.2681)">
            <text x="1px" y="22.079px" style="font-family:'Arial-BoldMT', 'Arial', sans-serif;font-weight:700;font-size:5px;">PM</text>
            <text x="8.5px" y="22.079px" style="font-family:'Arial-BoldMT', 'Arial', sans-serif;font-weight:700;font-size:3px;">10</text>
        </g>
        <g transform="matrix(1.09091,0,0,1.09091,-9.81818,-9.81818)">
            <text x="1px" y="22.079px" style="font-family:'Arial-BoldMT', 'Arial', sans-serif;font-weight:700;font-size:5px;">PM</text>
            <text x="8.5px" y="22.079px" style="font-family:'Arial-BoldMT', 'Arial', sans-serif;font-weight:700;font-size:3px;">2.5</text>
        </g>
    </g>
</svg>
