<?xml version="1.0" encoding="UTF-8" standalone="no"?>
<!DOCTYPE svg PUBLIC "-//W3C//DTD SVG 1.1//EN" "http://www.w3.org/Graphics/SVG/1.1/DTD/svg11.dtd">
<svg width="100%" height="100%" viewBox="0 0 24 24" version="1.1" xmlns="http://www.w3.org/2000/svg" xmlns:xlink="http://www.w3.org/1999/xlink" xml:space="preserve" xmlns:serif="http://www.serif.com/" style="fill-rule:evenodd;clip-rule:evenodd;stroke-linejoin:round;stroke-miterlimit:2;">
    <g transform="matrix(0.916667,0,0,0.916667,-2.5,-1.5)">
        <g id="weather-sunny.svg">
            <g>
                <path d="M12,7C14.743,7 17,9.257 17,12C17,14.743 14.743,17 12,17C9.257,17 7,14.743 7,12C7,9.257 9.257,7 12,7M12,9C10.354,9 9,10.354 9,12C9,13.646 10.354,15 12,15C13.646,15 15,13.646 15,12C15,10.354 13.646,9 12,9M12,2L14.39,5.42C13.65,5.15 12.84,5 12,5C11.16,5 10.35,5.15 9.61,5.42L12,2M3.34,7L7.5,6.65C6.9,7.16 6.36,7.78 5.94,8.5C5.5,9.24 5.25,10 5.11,10.79L3.34,7M3.36,17L5.12,13.23C5.26,14 5.53,14.78 5.95,15.5C6.37,16.24 6.91,16.86 7.5,17.37L3.36,17M20.65,7L18.88,10.79C18.74,10 18.47,9.23 18.05,8.5C17.63,7.78 17.1,7.15 16.5,6.64L20.65,7M20.64,17L16.5,17.36C17.09,16.85 17.62,16.22 18.04,15.5C18.46,14.77 18.73,14 18.87,13.21L20.64,17M12,22L9.59,18.56C10.33,18.83 11.14,19 12,19C12.82,19 13.63,18.83 14.37,18.56L12,22Z" style="fill-rule:nonzero;"/>
            </g>
        </g>
    </g>
    <g id="calendar.svg">
        <path d="M21.27,14.466L21.27,15.399L17.54,15.399L17.54,14.466L16.608,14.466L16.608,15.399L16.141,15.399C15.624,15.399 15.209,15.814 15.209,16.331L15.209,22.859C15.209,23.37 15.63,23.791 16.141,23.791L22.669,23.791C23.18,23.791 23.601,23.37 23.601,22.859L23.601,16.331C23.601,15.814 23.182,15.399 22.669,15.399L22.203,15.399L22.203,14.466L21.27,14.466ZM22.669,22.859L16.141,22.859L16.141,17.73L22.669,17.73L22.669,22.859Z"/>
    </g>
    <g transform="matrix(-0.511862,0,0,0.5,28.6186,12.0188)">
        <path d="M18,12.5C19.1,12.5 20.1,12.9 20.8,13.7L22,12.5L22,16.5L18,16.5L19.8,14.7C19.3,14.3 18.7,14 18,14C16.6,14 15.5,15.1 15.5,16.5C15.5,17.9 16.6,19 18,19C18.8,19 19.5,18.6 20,18L21.7,18C21.1,19.5 19.7,20.5 18,20.5C15.8,20.5 14,18.7 14,16.5C14,14.3 15.8,12.5 18,12.5Z"/>
    </g>
</svg>
